<mxfile host="app.diagrams.net" modified="2021-09-26T20:49:59.673Z" agent="5.0 (Windows NT 10.0; Win64; x64) AppleWebKit/537.36 (KHTML, like Gecko) Chrome/93.0.4577.82 Safari/537.36" etag="09FPTIqNYY6F4qFOk1Un" version="15.3.4" type="github">
  <diagram id="osjkvogEdQzCWs6-95Zz" name="Page-1">
    <mxGraphModel dx="1036" dy="571" grid="1" gridSize="10" guides="1" tooltips="1" connect="1" arrows="1" fold="1" page="1" pageScale="1" pageWidth="827" pageHeight="1169" math="0" shadow="0">
      <root>
        <mxCell id="0" />
        <mxCell id="1" parent="0" />
        <mxCell id="lgQb5l1NlrVly9EAT6a5-1" value="4.1" style="swimlane;childLayout=stackLayout;horizontal=1;startSize=30;horizontalStack=0;rounded=1;fontSize=14;fontStyle=1;strokeWidth=2;resizeParent=0;resizeLast=1;shadow=0;dashed=0;align=center;hachureGap=4;pointerEvents=0;fillColor=#dae8fc;strokeColor=#6c8ebf;" vertex="1" parent="1">
          <mxGeometry x="343" y="110" width="130" height="120" as="geometry" />
        </mxCell>
        <mxCell id="lgQb5l1NlrVly9EAT6a5-2" value="Make &#xa;Request" style="align=center;spacingLeft=4;fontSize=14;verticalAlign=top;resizable=0;rotatable=0;part=1;" vertex="1" parent="lgQb5l1NlrVly9EAT6a5-1">
          <mxGeometry y="30" width="130" height="90" as="geometry" />
        </mxCell>
        <mxCell id="lgQb5l1NlrVly9EAT6a5-3" value="" style="align=center;spacingLeft=4;fontSize=14;verticalAlign=top;resizable=0;rotatable=0;part=1;" vertex="1" parent="lgQb5l1NlrVly9EAT6a5-1">
          <mxGeometry y="120" width="130" as="geometry" />
        </mxCell>
        <mxCell id="lgQb5l1NlrVly9EAT6a5-4" value="" style="align=center;spacingLeft=4;fontSize=14;verticalAlign=top;resizable=0;rotatable=0;part=1;" vertex="1" parent="lgQb5l1NlrVly9EAT6a5-1">
          <mxGeometry y="120" width="130" as="geometry" />
        </mxCell>
        <mxCell id="lgQb5l1NlrVly9EAT6a5-7" value="4.2" style="swimlane;childLayout=stackLayout;horizontal=1;startSize=30;horizontalStack=0;rounded=1;fontSize=14;fontStyle=1;strokeWidth=2;resizeParent=0;resizeLast=1;shadow=0;dashed=0;align=center;hachureGap=4;pointerEvents=0;fillColor=#dae8fc;strokeColor=#6c8ebf;" vertex="1" parent="1">
          <mxGeometry x="343" y="260" width="130" height="120" as="geometry" />
        </mxCell>
        <mxCell id="lgQb5l1NlrVly9EAT6a5-8" value="Do Fuel Cost&#xa; Calculation" style="align=center;spacingLeft=4;fontSize=14;verticalAlign=top;resizable=0;rotatable=0;part=1;" vertex="1" parent="lgQb5l1NlrVly9EAT6a5-7">
          <mxGeometry y="30" width="130" height="90" as="geometry" />
        </mxCell>
        <mxCell id="lgQb5l1NlrVly9EAT6a5-9" value="" style="align=center;spacingLeft=4;fontSize=14;verticalAlign=top;resizable=0;rotatable=0;part=1;" vertex="1" parent="lgQb5l1NlrVly9EAT6a5-7">
          <mxGeometry y="120" width="130" as="geometry" />
        </mxCell>
        <mxCell id="lgQb5l1NlrVly9EAT6a5-10" value="" style="align=center;spacingLeft=4;fontSize=14;verticalAlign=top;resizable=0;rotatable=0;part=1;" vertex="1" parent="lgQb5l1NlrVly9EAT6a5-7">
          <mxGeometry y="120" width="130" as="geometry" />
        </mxCell>
        <mxCell id="lgQb5l1NlrVly9EAT6a5-11" value="View&#xa;Request" style="align=center;spacingLeft=4;fontSize=14;verticalAlign=top;resizable=0;rotatable=0;part=1;" vertex="1" parent="1">
          <mxGeometry x="343" y="290" width="130" height="90" as="geometry" />
        </mxCell>
        <mxCell id="lgQb5l1NlrVly9EAT6a5-12" value="4.3" style="swimlane;childLayout=stackLayout;horizontal=1;startSize=30;horizontalStack=0;rounded=1;fontSize=14;fontStyle=1;strokeWidth=2;resizeParent=0;resizeLast=1;shadow=0;dashed=0;align=center;hachureGap=4;pointerEvents=0;fillColor=#dae8fc;strokeColor=#6c8ebf;" vertex="1" parent="1">
          <mxGeometry x="343" y="410" width="130" height="120" as="geometry" />
        </mxCell>
        <mxCell id="lgQb5l1NlrVly9EAT6a5-13" value="Do Fuel Cost&#xa; Calculation" style="align=center;spacingLeft=4;fontSize=14;verticalAlign=top;resizable=0;rotatable=0;part=1;" vertex="1" parent="lgQb5l1NlrVly9EAT6a5-12">
          <mxGeometry y="30" width="130" height="90" as="geometry" />
        </mxCell>
        <mxCell id="lgQb5l1NlrVly9EAT6a5-14" value="" style="align=center;spacingLeft=4;fontSize=14;verticalAlign=top;resizable=0;rotatable=0;part=1;" vertex="1" parent="lgQb5l1NlrVly9EAT6a5-12">
          <mxGeometry y="120" width="130" as="geometry" />
        </mxCell>
        <mxCell id="lgQb5l1NlrVly9EAT6a5-15" value="" style="align=center;spacingLeft=4;fontSize=14;verticalAlign=top;resizable=0;rotatable=0;part=1;" vertex="1" parent="lgQb5l1NlrVly9EAT6a5-12">
          <mxGeometry y="120" width="130" as="geometry" />
        </mxCell>
        <mxCell id="lgQb5l1NlrVly9EAT6a5-16" value="Manage&#xa;Request" style="align=center;spacingLeft=4;fontSize=14;verticalAlign=top;resizable=0;rotatable=0;part=1;" vertex="1" parent="1">
          <mxGeometry x="343" y="440" width="130" height="90" as="geometry" />
        </mxCell>
        <mxCell id="lgQb5l1NlrVly9EAT6a5-17" value="4.4" style="swimlane;childLayout=stackLayout;horizontal=1;startSize=30;horizontalStack=0;rounded=1;fontSize=14;fontStyle=1;strokeWidth=2;resizeParent=0;resizeLast=1;shadow=0;dashed=0;align=center;hachureGap=4;pointerEvents=0;fillColor=#dae8fc;strokeColor=#6c8ebf;" vertex="1" parent="1">
          <mxGeometry x="343" y="550" width="130" height="120" as="geometry" />
        </mxCell>
        <mxCell id="lgQb5l1NlrVly9EAT6a5-18" value="Accept &#xa;Request" style="align=center;spacingLeft=4;fontSize=14;verticalAlign=top;resizable=0;rotatable=0;part=1;" vertex="1" parent="lgQb5l1NlrVly9EAT6a5-17">
          <mxGeometry y="30" width="130" height="90" as="geometry" />
        </mxCell>
        <mxCell id="lgQb5l1NlrVly9EAT6a5-19" value="" style="align=center;spacingLeft=4;fontSize=14;verticalAlign=top;resizable=0;rotatable=0;part=1;" vertex="1" parent="lgQb5l1NlrVly9EAT6a5-17">
          <mxGeometry y="120" width="130" as="geometry" />
        </mxCell>
        <mxCell id="lgQb5l1NlrVly9EAT6a5-20" value="" style="align=center;spacingLeft=4;fontSize=14;verticalAlign=top;resizable=0;rotatable=0;part=1;" vertex="1" parent="lgQb5l1NlrVly9EAT6a5-17">
          <mxGeometry y="120" width="130" as="geometry" />
        </mxCell>
        <mxCell id="lgQb5l1NlrVly9EAT6a5-23" value="4.5" style="swimlane;childLayout=stackLayout;horizontal=1;startSize=30;horizontalStack=0;rounded=1;fontSize=14;fontStyle=1;strokeWidth=2;resizeParent=0;resizeLast=1;shadow=0;dashed=0;align=center;hachureGap=4;pointerEvents=0;fillColor=#dae8fc;strokeColor=#6c8ebf;" vertex="1" parent="1">
          <mxGeometry x="343" y="701" width="130" height="120" as="geometry" />
        </mxCell>
        <mxCell id="lgQb5l1NlrVly9EAT6a5-24" value="Do Fuel Cost&#xa; Calculation" style="align=center;spacingLeft=4;fontSize=14;verticalAlign=top;resizable=0;rotatable=0;part=1;" vertex="1" parent="lgQb5l1NlrVly9EAT6a5-23">
          <mxGeometry y="30" width="130" height="90" as="geometry" />
        </mxCell>
        <mxCell id="lgQb5l1NlrVly9EAT6a5-25" value="" style="align=center;spacingLeft=4;fontSize=14;verticalAlign=top;resizable=0;rotatable=0;part=1;" vertex="1" parent="lgQb5l1NlrVly9EAT6a5-23">
          <mxGeometry y="120" width="130" as="geometry" />
        </mxCell>
        <mxCell id="lgQb5l1NlrVly9EAT6a5-26" value="" style="align=center;spacingLeft=4;fontSize=14;verticalAlign=top;resizable=0;rotatable=0;part=1;" vertex="1" parent="lgQb5l1NlrVly9EAT6a5-23">
          <mxGeometry y="120" width="130" as="geometry" />
        </mxCell>
        <mxCell id="lgQb5l1NlrVly9EAT6a5-27" value="Reject&#xa;Request" style="align=center;spacingLeft=4;fontSize=14;verticalAlign=top;resizable=0;rotatable=0;part=1;" vertex="1" parent="1">
          <mxGeometry x="343" y="730" width="130" height="90" as="geometry" />
        </mxCell>
        <mxCell id="lgQb5l1NlrVly9EAT6a5-34" value="&lt;font style=&quot;font-size: 14px&quot;&gt;Admin&lt;/font&gt;" style="rounded=0;whiteSpace=wrap;html=1;hachureGap=4;pointerEvents=0;fillColor=#008a00;strokeColor=#005700;fontColor=#ffffff;" vertex="1" parent="1">
          <mxGeometry x="40" y="630" width="120" height="40" as="geometry" />
        </mxCell>
        <mxCell id="lgQb5l1NlrVly9EAT6a5-35" value="&lt;font style=&quot;font-size: 14px&quot;&gt;Office Employee&lt;/font&gt;" style="rounded=0;whiteSpace=wrap;html=1;hachureGap=4;pointerEvents=0;fillColor=#f8cecc;strokeColor=#b85450;" vertex="1" parent="1">
          <mxGeometry x="30" y="170" width="120" height="50" as="geometry" />
        </mxCell>
        <mxCell id="lgQb5l1NlrVly9EAT6a5-36" value="&lt;font style=&quot;font-size: 14px&quot;&gt;Driver&lt;/font&gt;" style="rounded=0;whiteSpace=wrap;html=1;hachureGap=4;pointerEvents=0;fillColor=#f8cecc;strokeColor=#b85450;" vertex="1" parent="1">
          <mxGeometry x="660" y="600" width="120" height="40" as="geometry" />
        </mxCell>
        <mxCell id="lgQb5l1NlrVly9EAT6a5-37" value="D1&amp;nbsp; &amp;nbsp; TMS Database" style="html=1;dashed=0;whitespace=wrap;shape=mxgraph.dfd.dataStoreID;align=left;spacingLeft=3;points=[[0,0],[0.5,0],[1,0],[0,0.5],[1,0.5],[0,1],[0.5,1],[1,1]];hachureGap=4;pointerEvents=0;" vertex="1" parent="1">
          <mxGeometry x="590" y="300" width="160" height="30" as="geometry" />
        </mxCell>
        <mxCell id="lgQb5l1NlrVly9EAT6a5-39" value="" style="endArrow=classic;html=1;sourcePerimeterSpacing=8;targetPerimeterSpacing=8;exitX=1;exitY=0.5;exitDx=0;exitDy=0;" edge="1" parent="1" source="lgQb5l1NlrVly9EAT6a5-35">
          <mxGeometry width="50" height="50" relative="1" as="geometry">
            <mxPoint x="270" y="370" as="sourcePoint" />
            <mxPoint x="340" y="195" as="targetPoint" />
          </mxGeometry>
        </mxCell>
        <mxCell id="lgQb5l1NlrVly9EAT6a5-40" value="" style="endArrow=classic;html=1;sourcePerimeterSpacing=8;targetPerimeterSpacing=8;entryX=0.422;entryY=-0.093;entryDx=0;entryDy=0;entryPerimeter=0;exitX=1;exitY=0.5;exitDx=0;exitDy=0;" edge="1" parent="1" source="lgQb5l1NlrVly9EAT6a5-2" target="lgQb5l1NlrVly9EAT6a5-37">
          <mxGeometry width="50" height="50" relative="1" as="geometry">
            <mxPoint x="480" y="180" as="sourcePoint" />
            <mxPoint x="320" y="320" as="targetPoint" />
            <Array as="points">
              <mxPoint x="658" y="185" />
            </Array>
          </mxGeometry>
        </mxCell>
        <mxCell id="lgQb5l1NlrVly9EAT6a5-41" value="Store Request Info" style="text;html=1;align=center;verticalAlign=middle;resizable=0;points=[];autosize=1;strokeColor=none;fillColor=none;" vertex="1" parent="1">
          <mxGeometry x="500" y="160" width="120" height="20" as="geometry" />
        </mxCell>
        <mxCell id="lgQb5l1NlrVly9EAT6a5-42" value="" style="endArrow=classic;html=1;sourcePerimeterSpacing=8;targetPerimeterSpacing=8;entryX=0.25;entryY=0;entryDx=0;entryDy=0;" edge="1" parent="1" target="lgQb5l1NlrVly9EAT6a5-34">
          <mxGeometry width="50" height="50" relative="1" as="geometry">
            <mxPoint x="340" y="330" as="sourcePoint" />
            <mxPoint x="100" y="330" as="targetPoint" />
            <Array as="points">
              <mxPoint x="70" y="330" />
            </Array>
          </mxGeometry>
        </mxCell>
        <mxCell id="lgQb5l1NlrVly9EAT6a5-43" value="&lt;font style=&quot;font-size: 14px&quot;&gt;Can&lt;/font&gt;" style="text;html=1;align=center;verticalAlign=middle;resizable=0;points=[];autosize=1;strokeColor=none;fillColor=none;" vertex="1" parent="1">
          <mxGeometry x="230" y="305" width="40" height="20" as="geometry" />
        </mxCell>
        <mxCell id="lgQb5l1NlrVly9EAT6a5-44" value="" style="endArrow=classic;html=1;sourcePerimeterSpacing=8;targetPerimeterSpacing=8;entryX=0.992;entryY=0.409;entryDx=0;entryDy=0;entryPerimeter=0;" edge="1" parent="1" target="lgQb5l1NlrVly9EAT6a5-11">
          <mxGeometry width="50" height="50" relative="1" as="geometry">
            <mxPoint x="590" y="327" as="sourcePoint" />
            <mxPoint x="473" y="320" as="targetPoint" />
          </mxGeometry>
        </mxCell>
        <mxCell id="lgQb5l1NlrVly9EAT6a5-45" value="Provide Request &lt;br&gt;Info" style="text;html=1;align=center;verticalAlign=middle;resizable=0;points=[];autosize=1;strokeColor=none;fillColor=none;" vertex="1" parent="1">
          <mxGeometry x="475" y="295" width="100" height="30" as="geometry" />
        </mxCell>
        <mxCell id="lgQb5l1NlrVly9EAT6a5-46" value="" style="endArrow=classic;html=1;sourcePerimeterSpacing=8;targetPerimeterSpacing=8;exitX=0.56;exitY=-0.1;exitDx=0;exitDy=0;exitPerimeter=0;" edge="1" parent="1" source="lgQb5l1NlrVly9EAT6a5-34">
          <mxGeometry width="50" height="50" relative="1" as="geometry">
            <mxPoint x="270" y="470" as="sourcePoint" />
            <mxPoint x="340" y="470" as="targetPoint" />
            <Array as="points">
              <mxPoint x="107" y="470" />
            </Array>
          </mxGeometry>
        </mxCell>
        <mxCell id="lgQb5l1NlrVly9EAT6a5-47" value="Check Avaiability" style="text;html=1;align=center;verticalAlign=middle;resizable=0;points=[];autosize=1;strokeColor=none;fillColor=none;" vertex="1" parent="1">
          <mxGeometry x="170" y="450" width="110" height="20" as="geometry" />
        </mxCell>
        <mxCell id="lgQb5l1NlrVly9EAT6a5-48" value="" style="endArrow=classic;html=1;sourcePerimeterSpacing=8;targetPerimeterSpacing=8;entryX=1;entryY=0.75;entryDx=0;entryDy=0;exitX=0.313;exitY=1.053;exitDx=0;exitDy=0;exitPerimeter=0;" edge="1" parent="1" source="lgQb5l1NlrVly9EAT6a5-37" target="lgQb5l1NlrVly9EAT6a5-12">
          <mxGeometry width="50" height="50" relative="1" as="geometry">
            <mxPoint x="640" y="340" as="sourcePoint" />
            <mxPoint x="480" y="480" as="targetPoint" />
            <Array as="points">
              <mxPoint x="640" y="500" />
            </Array>
          </mxGeometry>
        </mxCell>
        <mxCell id="lgQb5l1NlrVly9EAT6a5-49" value="Retrieves Data from Schedule" style="text;html=1;align=center;verticalAlign=middle;resizable=0;points=[];autosize=1;strokeColor=none;fillColor=none;" vertex="1" parent="1">
          <mxGeometry x="470" y="470" width="180" height="20" as="geometry" />
        </mxCell>
        <mxCell id="lgQb5l1NlrVly9EAT6a5-50" value="" style="endArrow=classic;html=1;sourcePerimeterSpacing=8;targetPerimeterSpacing=8;exitX=1;exitY=0.75;exitDx=0;exitDy=0;" edge="1" parent="1">
          <mxGeometry width="50" height="50" relative="1" as="geometry">
            <mxPoint x="160" y="632" as="sourcePoint" />
            <mxPoint x="340" y="632" as="targetPoint" />
          </mxGeometry>
        </mxCell>
        <mxCell id="lgQb5l1NlrVly9EAT6a5-51" value="&lt;font style=&quot;font-size: 14px&quot;&gt;Can&lt;/font&gt;" style="text;html=1;align=center;verticalAlign=middle;resizable=0;points=[];autosize=1;strokeColor=none;fillColor=none;" vertex="1" parent="1">
          <mxGeometry x="240" y="595" width="40" height="20" as="geometry" />
        </mxCell>
        <mxCell id="lgQb5l1NlrVly9EAT6a5-52" value="" style="endArrow=classic;html=1;sourcePerimeterSpacing=8;targetPerimeterSpacing=8;entryX=0.5;entryY=1;entryDx=0;entryDy=0;entryPerimeter=0;" edge="1" parent="1" target="lgQb5l1NlrVly9EAT6a5-37">
          <mxGeometry width="50" height="50" relative="1" as="geometry">
            <mxPoint x="475" y="597" as="sourcePoint" />
            <mxPoint x="670" y="337" as="targetPoint" />
            <Array as="points">
              <mxPoint x="670" y="597" />
            </Array>
          </mxGeometry>
        </mxCell>
        <mxCell id="lgQb5l1NlrVly9EAT6a5-53" value="Store Data" style="text;html=1;align=center;verticalAlign=middle;resizable=0;points=[];autosize=1;strokeColor=none;fillColor=none;" vertex="1" parent="1">
          <mxGeometry x="525" y="575" width="70" height="20" as="geometry" />
        </mxCell>
        <mxCell id="lgQb5l1NlrVly9EAT6a5-55" value="" style="endArrow=classic;html=1;sourcePerimeterSpacing=8;targetPerimeterSpacing=8;entryX=0.66;entryY=1.09;entryDx=0;entryDy=0;entryPerimeter=0;" edge="1" parent="1" target="lgQb5l1NlrVly9EAT6a5-36">
          <mxGeometry width="50" height="50" relative="1" as="geometry">
            <mxPoint x="470" y="660" as="sourcePoint" />
            <mxPoint x="740" y="650" as="targetPoint" />
            <Array as="points">
              <mxPoint x="520" y="660" />
              <mxPoint x="739" y="660" />
            </Array>
          </mxGeometry>
        </mxCell>
        <mxCell id="lgQb5l1NlrVly9EAT6a5-56" value="Get Message" style="text;html=1;align=center;verticalAlign=middle;resizable=0;points=[];autosize=1;strokeColor=none;fillColor=none;" vertex="1" parent="1">
          <mxGeometry x="525" y="640" width="90" height="20" as="geometry" />
        </mxCell>
        <mxCell id="lgQb5l1NlrVly9EAT6a5-57" value="" style="endArrow=classic;html=1;sourcePerimeterSpacing=8;targetPerimeterSpacing=8;entryX=1;entryY=0.25;entryDx=0;entryDy=0;" edge="1" parent="1">
          <mxGeometry width="50" height="50" relative="1" as="geometry">
            <mxPoint x="710" y="330" as="sourcePoint" />
            <mxPoint x="473" y="575" as="targetPoint" />
            <Array as="points">
              <mxPoint x="710" y="575" />
            </Array>
          </mxGeometry>
        </mxCell>
        <mxCell id="lgQb5l1NlrVly9EAT6a5-60" value="Provide Data" style="text;html=1;align=center;verticalAlign=middle;resizable=0;points=[];autosize=1;strokeColor=none;fillColor=none;" vertex="1" parent="1">
          <mxGeometry x="525" y="550" width="90" height="20" as="geometry" />
        </mxCell>
        <mxCell id="lgQb5l1NlrVly9EAT6a5-61" value="" style="endArrow=classic;html=1;sourcePerimeterSpacing=8;targetPerimeterSpacing=8;entryX=0.75;entryY=1;entryDx=0;entryDy=0;" edge="1" parent="1">
          <mxGeometry width="50" height="50" relative="1" as="geometry">
            <mxPoint x="340" y="663" as="sourcePoint" />
            <mxPoint x="120" y="223" as="targetPoint" />
            <Array as="points">
              <mxPoint x="280" y="663" />
              <mxPoint x="280" y="693" />
              <mxPoint x="280" y="720" />
              <mxPoint x="160" y="720" />
              <mxPoint x="30" y="720" />
              <mxPoint x="30" y="463" />
              <mxPoint x="30" y="383" />
              <mxPoint x="30" y="303" />
              <mxPoint x="120" y="303" />
            </Array>
          </mxGeometry>
        </mxCell>
        <mxCell id="lgQb5l1NlrVly9EAT6a5-62" value="" style="endArrow=classic;html=1;sourcePerimeterSpacing=8;targetPerimeterSpacing=8;entryX=0;entryY=0.75;entryDx=0;entryDy=0;exitX=0;exitY=0.5;exitDx=0;exitDy=0;" edge="1" parent="1" source="lgQb5l1NlrVly9EAT6a5-27" target="lgQb5l1NlrVly9EAT6a5-35">
          <mxGeometry width="50" height="50" relative="1" as="geometry">
            <mxPoint x="340" y="800" as="sourcePoint" />
            <mxPoint x="10" y="210" as="targetPoint" />
            <Array as="points">
              <mxPoint x="20" y="775" />
              <mxPoint x="20" y="700" />
              <mxPoint x="20" y="460" />
              <mxPoint x="20" y="330" />
              <mxPoint x="20" y="270" />
              <mxPoint x="20" y="220" />
            </Array>
          </mxGeometry>
        </mxCell>
        <mxCell id="lgQb5l1NlrVly9EAT6a5-63" value="Get Message for request acceptance" style="text;html=1;align=center;verticalAlign=middle;resizable=0;points=[];autosize=1;strokeColor=none;fillColor=none;" vertex="1" parent="1">
          <mxGeometry x="60" y="700" width="210" height="20" as="geometry" />
        </mxCell>
        <mxCell id="lgQb5l1NlrVly9EAT6a5-64" value="Get Message for request rejection" style="text;html=1;align=center;verticalAlign=middle;resizable=0;points=[];autosize=1;strokeColor=none;fillColor=none;" vertex="1" parent="1">
          <mxGeometry x="70" y="751" width="200" height="20" as="geometry" />
        </mxCell>
      </root>
    </mxGraphModel>
  </diagram>
</mxfile>
